<svg width="33" height="46" viewBox="0 0 33 46" fill="none" xmlns="http://www.w3.org/2000/svg">
    <path d="M16.659 13.558a16.338 16.338 0 0 1 12.865 6.175 15.942 15.942 0 0 1-.991 21 16.302 16.302 0 0 1-11.874 5.047A16.114 16.114 0 0 1 1.575 23.453a16.112 16.112 0 0 1 15.084-9.895zm-3.64 20.622a.835.835 0 0 0 1.152.26l4.316-2.724a.834.834 0 0 0 .389-.706v-8.468a.835.835 0 1 0-1.671 0v8.007l-3.926 2.481a.836.836 0 0 0-.26 1.153v-.003zM30.12 6.173H2.339a.835.835 0 0 1 0-1.67H30.12a.835.835 0 1 1 0 1.67z" fill="#007AFF"/>
    <path d="M26.477 10.67a.835.835 0 0 1-.591-1.426l3.912-3.911-3.909-3.907A.836.836 0 0 1 27.07.244l4.5 4.5a.833.833 0 0 1 0 1.181l-4.5 4.5a.833.833 0 0 1-.593.245z" fill="#007AFF"/>
</svg>
