<svg width="40" height="40" viewBox="0 0 40 40" fill="none" xmlns="http://www.w3.org/2000/svg">
    <path d="M13.333 21.667V7.5a2.5 2.5 0 0 1 5 0V20M18.333 19.166v-3.333a2.5 2.5 0 0 1 5 0V20M23.333 17.5a2.5 2.5 0 0 1 5 0V20" stroke="#F2F8FF" stroke-width="2.5" stroke-linecap="round" stroke-linejoin="round"/>
    <path d="M28.333 19.167a2.5 2.5 0 0 1 5 0v7.5a10 10 0 0 1-10 10h-2.986a10 10 0 0 1-8.354-4.5l-.327-.5c-.52-.8-2.346-3.982-5.477-9.547a2.5 2.5 0 0 1 .893-3.37 3.112 3.112 0 0 1 3.8.467l2.45 2.45" stroke="#F2F8FF" stroke-width="2.5" stroke-linecap="round" stroke-linejoin="round"/>
</svg>
