<svg width="120" height="120" viewBox="0 0 120 120" fill="none" xmlns="http://www.w3.org/2000/svg">
    <g clip-path="url(#2yv7ajmqra)">
        <path d="M32.857 71.429H30a1.429 1.429 0 1 0 0 2.857h2.857a1.429 1.429 0 0 0 0-2.857zm0 5.714H30A1.429 1.429 0 1 0 30 80h2.857a1.429 1.429 0 0 0 0-2.857zM90 71.429h-2.857a1.428 1.428 0 1 0 0 2.857H90a1.429 1.429 0 0 0 0-2.857zm0 5.714h-2.857a1.428 1.428 0 1 0 0 2.857H90a1.429 1.429 0 0 0 0-2.857z" fill="#888"/>
        <path d="M41.936 62.857a3.304 3.304 0 0 0-3.365 3.232v19.25a3.319 3.319 0 0 0 3.365 3.232h36.129a3.31 3.31 0 0 0 3.363-3.232v-19.25a3.303 3.303 0 0 0-3.363-3.232h-36.13zM60.41 76.304a.741.741 0 0 1-.763.045L44.867 65.714h30.264l-14.72 10.59zM41.428 66.76l12.218 8.79-12.218 9.765V66.759zm14.626 10.522 1.976 1.421a3.51 3.51 0 0 0 1.94.585 3.804 3.804 0 0 0 1.942-.55c.036-.021 2.034-1.456 2.034-1.456l10.55 8.433H45.503l10.551-8.433zm10.3-1.732 12.217-8.789v18.554l-12.217-9.765z" fill="#EB001B"/>
        <path d="M54.843 52.143h39.443a1.43 1.43 0 0 1 1.428 1.428v40.715h2.858V53.57a4.291 4.291 0 0 0-4.286-4.285H56.053l-1.21 2.857zM24.286 53.57a1.43 1.43 0 0 1 1.428-1.428h4.55l-.128-.97-4.329-1.887h-.093a4.29 4.29 0 0 0-4.285 4.285v40.715h2.857V53.57z" fill="#888"/>
        <path d="m26.571 46.502 6.184 2.696 1.271 9.562a1.428 1.428 0 0 0 2.554.676l4.706-6.189L48.49 56.2a1.441 1.441 0 0 0 1.857-.766l8.111-19.163a1.428 1.428 0 0 0-1.745-1.918l-30 9.478a1.44 1.44 0 0 0-.14 2.672h-.002zm9.831 8.447-.77-5.797 7.223-2.69-6.453 8.487zM54.62 38.01 48.266 53.02l-5.19-2.127 5.036-6.624a1.429 1.429 0 0 0-1.636-2.203l-12.369 4.605-2.9-1.264L54.62 38.01z" fill="#EB001B"/>
        <path d="M1.429 105.714a1.428 1.428 0 1 0 0-2.856 1.428 1.428 0 0 0 0 2.856zM7.857 102.857H5.714a1.429 1.429 0 0 0 0 2.857h2.143a1.428 1.428 0 1 0 0-2.857zm106.429 0h-2.143a1.428 1.428 0 0 0 0 2.857h2.143a1.427 1.427 0 1 0 0-2.857zM118.572 105.714a1.428 1.428 0 1 0 0-2.855 1.428 1.428 0 0 0 0 2.855z" fill="#888"/>
        <path d="M84.396 108.571h-5.934a1.433 1.433 0 0 0 0 2.858h5.934a1.433 1.433 0 0 0 0-2.858zm-42.857 0h-5.935a1.433 1.433 0 0 0 0 2.858h5.935a1.433 1.433 0 0 0 0-2.858zm32.747 0H45.714a1.429 1.429 0 0 0 0 2.858H57.1v1.428H51.43a1.429 1.429 0 0 0 0 2.857h17.857a1.428 1.428 0 1 0 0-2.857H62.9v-1.428h11.386a1.429 1.429 0 0 0 0-2.858z" fill="#EB001B"/>
        <path d="M107.658 102.857h-2.194c.165-.458.249-.941.25-1.428v-2.858a1.428 1.428 0 0 0-1.428-1.428H15.714a1.429 1.429 0 0 0-1.428 1.428v2.858c0 .487.085.97.25 1.428h-2.194a1.45 1.45 0 0 0-1.5.834 1.446 1.446 0 0 0 .363 1.677 1.436 1.436 0 0 0 1.137.346h95.315a1.428 1.428 0 0 0 1.137-.346 1.434 1.434 0 0 0 0-2.165 1.45 1.45 0 0 0-1.136-.346zm-89.087 0a1.428 1.428 0 0 1-1.428-1.428V100h85.714v1.429a1.428 1.428 0 0 1-1.428 1.428H18.571zm10-80.063a2.143 2.143 0 1 0 0-4.285 2.143 2.143 0 0 0 0 4.285zm0-3.214a1.071 1.071 0 1 1 0 2.142 1.071 1.071 0 0 1 0-2.142zm87.5-3.151a1.428 1.428 0 1 0 0 2.855 1.428 1.428 0 0 0 0-2.855zm0 2.142a.711.711 0 0 1-.659-.44.708.708 0 0 1 .52-.974.716.716 0 0 1 .854.7.714.714 0 0 1-.715.714zM3.929 12.143a1.428 1.428 0 1 0 0 2.857 1.428 1.428 0 0 0 0-2.857zm0 2.143a.714.714 0 1 1 0-1.429.714.714 0 0 1 0 1.429zm46.86-9.596a1.428 1.428 0 1 0 1.992 2.047A1.428 1.428 0 0 0 50.79 4.69zm1.495 1.536a.714.714 0 1 1-.996-1.024.714.714 0 0 1 .996 1.024zm-.498 22.82a1.43 1.43 0 1 0-2.86 0 1.43 1.43 0 0 0 2.86 0zm-2.143 0a.715.715 0 1 1 1.429 0 .715.715 0 0 1-1.43 0z" fill="#888"/>
        <path d="m12.088 41.776 1.062-1.396-.67-.38-.682 1.564h-.023l-.693-1.553-.682.391 1.05 1.364v.022l-1.643-.212v.759l1.654-.211v.022L10.4 43.509l.637.402.727-1.576h.022l.67 1.565.705-.402-1.073-1.342v-.022l1.687.201v-.76l-1.687.224v-.023zM68.769 18.62l-.612.785.367.231.419-.907h.013l.385.9.406-.23-.618-.774v-.013l.972.117v-.438l-.972.129v-.013l.612-.805-.386-.218-.393.9h-.013l-.398-.894-.394.225.606.785v.013l-.947-.122v.438l.953-.122v.013zm25.16-7.396v-.745l-1.655.22v-.023l1.042-1.37-.658-.373-.669 1.534h-.023l-.679-1.523-.67.384 1.032 1.337v.022l-1.612-.208v.745l1.622-.208v.022l-1.041 1.337.625.395.713-1.546h.021l.658 1.535.69-.394-1.051-1.316v-.022l1.655.197zm6.03 24.63.899-1.182-.567-.322-.577 1.324h-.02l-.585-1.314-.578.33.89 1.154v.02l-1.391-.18v.642l1.4-.18v.02l-.899 1.153.539.34.616-1.333h.018l.567 1.324.596-.34-.908-1.135v-.019l1.428.17v-.643l-1.428.19v-.02z" fill="#EB001B"/>
    </g>
    <defs>
        <clipPath id="2yv7ajmqra">
            <path fill="#fff" d="M0 0h120v120H0z"/>
        </clipPath>
    </defs>
</svg>
