<svg width="28" height="28" viewBox="0 0 28 28" fill="none" xmlns="http://www.w3.org/2000/svg">
    <path d="M26.833 5.25H1.167C.52 5.25 0 5.773 0 6.417v15.166c0 .644.521 1.167 1.167 1.167h25.666c.645 0 1.167-.523 1.167-1.167V6.417c0-.644-.521-1.167-1.167-1.167zm-17.5 9.333h-3.5a1.166 1.166 0 1 1 0-2.333h3.5a1.166 1.166 0 1 1 0 2.333zm1.167-3.5H5.833a1.166 1.166 0 1 1 0-2.333H10.5a1.166 1.166 0 1 1 0 2.333zm13.658-.341-1.991 1.991v4.184a1.166 1.166 0 1 1-2.334 0v-1.85l-3.841 3.841a1.165 1.165 0 0 1-1.65 0l-2.334-2.333a1.166 1.166 0 1 1 1.65-1.65l1.509 1.509 3.017-3.017h-1.85a1.166 1.166 0 1 1 0-2.334h4.183l1.991-1.991a1.165 1.165 0 1 1 1.65 1.65z" fill="#06C0D9"/>
</svg>
