<svg width="28" height="28" viewBox="0 0 28 28" fill="none" xmlns="http://www.w3.org/2000/svg">
    <g clip-path="url(#iu2j3e6z4a)" fill="#00635B">
        <path d="M16.754 3.733C16.567 2.641 15.708 0 11.667 0c-4.041 0-4.9 2.641-5.082 3.733h.933c.173-.905.92-2.8 4.149-2.8 3.206 0 3.967 1.895 4.144 2.8h.943zM.934 9.763v-4.63a.467.467 0 0 1 .466-.466h20.534a.467.467 0 0 1 .466.466v4.63a.459.459 0 0 1-.25.413c-.934.492-3.304 1.326-8.706 1.479a1.4 1.4 0 0 0-1.31-.922H11.2a1.4 1.4 0 0 0-1.31.922c-5.402-.153-7.772-.987-8.71-1.482a.458.458 0 0 1-.246-.41zM12.133 11.667H11.2a.467.467 0 0 0-.467.466V14c0 .258.21.467.467.467h.933A.467.467 0 0 0 12.6 14v-1.867a.467.467 0 0 0-.467-.466z"/>
        <path d="M1.867 20.067A.467.467 0 0 1 1.4 19.6v-8.303c1.29.516 3.794 1.152 8.4 1.289V14a1.4 1.4 0 0 0 1.4 1.4h.934a1.4 1.4 0 0 0 1.4-1.4v-1.414c4.608-.137 7.113-.774 8.4-1.289v4.223c-.18.199-.365.405-.553.617l-5.06-2.02a.953.953 0 0 0-1.041.215l-.77.769a.975.975 0 0 0-.163 1.14c.066.12.155.224.264.306l3.903 2.92-.501.6H1.867z"/>
        <path d="M26.103 16.418a56.126 56.126 0 0 1-2.503 2.317.466.466 0 0 0-.126.524l2.133 5.401-.808.768-3.22-4.298a.467.467 0 0 0-.675-.076c-1.68 1.423-3.207 2.663-3.78 3.13a.467.467 0 0 0-.159.474l.445 1.751-.657.662-.569-1.134a.467.467 0 0 0-.747-.12l-.41.41a.467.467 0 0 1-.761-.505.456.456 0 0 1 .102-.149l.416-.415a.466.466 0 0 0-.123-.746l-1.128-.56.65-.65 1.759.434a.464.464 0 0 0 .474-.159 284.76 284.76 0 0 1 3.13-3.787.466.466 0 0 0-.077-.674l-4.293-3.258.799-.775 5.367 2.142a.467.467 0 0 0 .523-.125 55.543 55.543 0 0 1 2.319-2.504 2.97 2.97 0 0 1 1.822-.963 1.078 1.078 0 0 1 1.06 1.061 2.969 2.969 0 0 1-.962 1.823h-.001z"/>
    </g>
    <defs>
        <clipPath id="iu2j3e6z4a">
            <path fill="#fff" d="M0 0h28v28H0z"/>
        </clipPath>
    </defs>
</svg>
