<svg width="19" height="19" viewBox="0 0 19 19" fill="none" xmlns="http://www.w3.org/2000/svg">
    <path fill-rule="evenodd" clip-rule="evenodd" d="M14.072 9.524a.77.77 0 1 1-1.292.839c-.737-1.135-1.14-1.285-1.621-1.338.451 1.471.561 2.385.267 3.084a1.86 1.86 0 0 0 .376 1.149 9.486 9.486 0 0 0 1.814 1.476.77.77 0 0 1-.894 1.256 10.28 10.28 0 0 1-2.128-1.772 3.06 3.06 0 0 1-.581-1.13 8.913 8.913 0 0 0-1.506 1.592c-.206.333-.31.719-.3 1.11a.77.77 0 0 1-1.54-.054 3.373 3.373 0 0 1 .54-1.883 9.626 9.626 0 0 1 1.656-1.807l-.377-2.435a6.3 6.3 0 0 1-2.972 1.201.771.771 0 0 1-.28-1.515c1.05-.11 2.03-.579 2.773-1.329 1.851-1.75 4.782-.419 6.065 1.556zM9.854.958a9.021 9.021 0 1 0 0 18.042 9.021 9.021 0 0 0 0-18.042zm0 1.389a7.632 7.632 0 1 1 0 15.264 7.632 7.632 0 0 1 0-15.264zm-.851 1.091a1.655 1.655 0 1 0 0 3.31 1.655 1.655 0 0 0 0-3.31z" fill="#EB001B"/>
</svg>
