<svg width="41" height="40" viewBox="0 0 41 40" fill="none" xmlns="http://www.w3.org/2000/svg">
<g id="ic_check in" clip-path="url(#clip0_126_3762)">
<g id="OBJECTS">
<g id="Group">
<g id="Group_2">
<g id="Group_3">
<path id="Vector" d="M14.2937 25.2356L14.2937 18.3189H5.5437L5.5437 25.2356H14.2937Z" fill="white"/>
</g>
<g id="Group_4">
<path id="Vector_2" d="M4.17072 25.1921L4.17072 18.2755H0.754048L0.754048 25.1921H4.17072Z" fill="white"/>
</g>
<path id="Vector_3" d="M20.5 21.75L16.8334 24.9166L13.0834 28.1666V21.75V15.3333L16.8334 18.5L20.5 21.75Z" fill="white"/>
</g>
<path id="Vector_4" d="M24.5 33.6667H8.33337V14.5C8.33337 9.99999 12 6.41666 16.4167 6.41666C20.9167 6.41666 24.5 10.0833 24.5 14.5V33.6667Z" stroke="white" stroke-width="0.8505" stroke-miterlimit="10"/>
<path id="Vector_5" d="M40.75 33.6667H24.5V14.5C24.5 9.99999 28.1667 6.41666 32.5833 6.41666C37.0833 6.41666 40.6667 10.0833 40.6667 14.5V33.6667H40.75Z" fill="white"/>
</g>
</g>
</g>
<defs>
<clipPath id="clip0_126_3762">
<rect width="40" height="40" fill="white" transform="translate(0.75)"/>
</clipPath>
</defs>
</svg>
