<svg width="24" height="24" viewBox="0 0 24 24" fill="none" xmlns="http://www.w3.org/2000/svg">
    <g clip-path="url(#823lx9jsea)" fill="#F79E1B">
        <path d="M22 7.25h-6a.755.755 0 0 1-.75-.75.755.755 0 0 1 .75-.75h6a.755.755 0 0 1 .75.75.755.755 0 0 1-.75.75zM6 7.25H2a.755.755 0 0 1-.75-.75.755.755 0 0 1 .75-.75h4a.755.755 0 0 1 .75.75.755.755 0 0 1-.75.75z"/>
        <path d="M10 10.75a4.25 4.25 0 1 1 4.25-4.25A4.26 4.26 0 0 1 10 10.75zm0-7a2.75 2.75 0 1 0 0 5.5 2.75 2.75 0 0 0 0-5.5zM22 18.25h-4a.755.755 0 0 1-.75-.75.755.755 0 0 1 .75-.75h4a.755.755 0 0 1 .75.75.755.755 0 0 1-.75.75zM8 18.25H2a.755.755 0 0 1-.75-.75.755.755 0 0 1 .75-.75h6a.755.755 0 0 1 .75.75.755.755 0 0 1-.75.75z"/>
        <path d="M14 21.75a4.25 4.25 0 1 1 4.25-4.25A4.26 4.26 0 0 1 14 21.75zm0-7a2.75 2.75 0 1 0 0 5.5 2.75 2.75 0 0 0 0-5.5z"/>
    </g>
    <defs>
        <clipPath id="823lx9jsea">
            <path fill="#fff" d="M0 0h24v24H0z"/>
        </clipPath>
    </defs>
</svg>
