<svg width="24" height="24" viewBox="0 0 24 24" fill="none" xmlns="http://www.w3.org/2000/svg">
<path d="M14.72 15.004H9.28003" stroke="#E63A2D" stroke-width="1.5" stroke-linecap="round" stroke-linejoin="round"/>
<path d="M17 22.002H7C5.67392 22.002 4.40214 21.4752 3.46446 20.5375C2.52678 19.5999 2 18.3281 2 17.002V11.993C1.99987 11.3045 2.14192 10.6235 2.41724 9.99249C2.69256 9.36149 3.09521 8.79415 3.59999 8.326L9.28 3.061C10.0195 2.3756 10.9907 1.99478 11.999 1.99478C13.0073 1.99478 13.9785 2.3756 14.718 3.061L20.398 8.326C20.9028 8.79415 21.3054 9.36149 21.5808 9.99249C21.8561 10.6235 21.9981 11.3045 21.998 11.993V17.002C21.998 18.3277 21.4715 19.5992 20.5342 20.5368C19.597 21.4745 18.3257 22.0015 17 22.002Z" stroke="#B9B9B9" stroke-width="1.5" stroke-miterlimit="10" stroke-linecap="round" stroke-linejoin="round"/>
</svg>
