<svg width="28" height="28" viewBox="0 0 28 28" fill="none" xmlns="http://www.w3.org/2000/svg">
    <path d="M14 5.25a.875.875 0 0 0 .875-.875v-1.75a.875.875 0 0 0-1.75 0v1.75A.875.875 0 0 0 14 5.25zm0 17.5a.875.875 0 0 0-.875.875v1.75a.875.875 0 1 0 1.75 0v-1.75A.875.875 0 0 0 14 22.75zm-9.625-9.625h-1.75a.875.875 0 0 0 0 1.75h1.75a.875.875 0 0 0 0-1.75zm2.2 7.062-1.237 1.237a.876.876 0 1 0 1.238 1.239l1.237-1.238a.875.875 0 1 0-1.237-1.237zm0-12.374a.875.875 0 0 0 1.238-1.237L6.576 5.338a.875.875 0 1 0-1.238 1.238l1.238 1.237zm8.3-.76a7.318 7.318 0 0 0-1.75 0 7 7 0 0 0 0 13.895c.581.07 1.169.07 1.75 0a7 7 0 0 0 0-13.896zm-1.75 12.118a5.244 5.244 0 0 1 0-10.342c.289-.053.582-.08.875-.079v10.5c-.293 0-.586-.026-.875-.079z" fill="#5238FF"/>
</svg>
