<svg width="28" height="28" viewBox="0 0 28 28" fill="none" xmlns="http://www.w3.org/2000/svg">
    <path d="M21.192 8.167H6.808a2.304 2.304 0 0 1-1.633 1.636V18.2a2.304 2.304 0 0 1 1.633 1.633h14.384a2.303 2.303 0 0 1 1.633-1.633V9.803a2.303 2.303 0 0 1-1.633-1.636zM14 13.417a1.89 1.89 0 0 1 .583 3.69v.393a.583.583 0 0 1-1.166 0v-.393a1.892 1.892 0 0 1-1.313-1.794.583.583 0 0 1 1.167 0 .73.73 0 1 0 .73-.73 1.89 1.89 0 0 1-.584-3.69V10.5a.583.583 0 0 1 1.166 0v.393a1.891 1.891 0 0 1 1.313 1.794.583.583 0 0 1-1.167 0 .729.729 0 1 0-.729.73z" fill="#EF4B4B"/>
    <path d="M24.5 4.667h-21a1.75 1.75 0 0 0-1.75 1.75v15.166a1.75 1.75 0 0 0 1.75 1.75h21a1.75 1.75 0 0 0 1.75-1.75V6.417a1.75 1.75 0 0 0-1.75-1.75zm-.506 14.038a.583.583 0 0 1-.583.584 1.13 1.13 0 0 0-1.128 1.128.583.583 0 0 1-.583.583H6.3a.583.583 0 0 1-.583-.583 1.13 1.13 0 0 0-1.128-1.129.583.583 0 0 1-.583-.583v-9.41a.583.583 0 0 1 .583-.584 1.13 1.13 0 0 0 1.128-1.128A.583.583 0 0 1 6.3 7h15.4a.583.583 0 0 1 .583.583 1.13 1.13 0 0 0 1.128 1.128.583.583 0 0 1 .583.584v9.41z" fill="#EF4B4B"/>
</svg>
