<svg width="28" height="28" viewBox="0 0 28 28" fill="none" xmlns="http://www.w3.org/2000/svg">
    <path d="M2.87 8.368a.82.82 0 1 0-.82 1.42.82.82 0 0 0 .82-1.42zm20.919-1.75h-.82v-.82a.82.82 0 1 0-1.641 0v.82h-.82a.82.82 0 1 0 0 1.64h.82v.82a.82.82 0 1 0 1.64 0v-.82h.82a.82.82 0 1 0 0-1.64zM1.64 4.101a.82.82 0 1 0 1.64 0v-.82h.82a.82.82 0 1 0 0-1.641h-.82V.82a.82.82 0 1 0-1.64 0v.82H.82a.82.82 0 1 0 0 1.64h.82v.82zm5.181-2.568c.78 1.562 1.214 3.286 1.324 5.029h8.318c.109-1.743.542-3.467 1.323-5.03l.173-.345a.82.82 0 0 0-1.1-1.101l-2.753 1.376L12.884.241a.82.82 0 0 0-1.16 0l-1.222 1.222L7.75.087a.819.819 0 0 0-1.177.602.82.82 0 0 0 .076.499l.173.346zm10.505 6.724H7.282l-3.203 3.876c-1.572 1.905-2.438 4.37-2.438 6.843C1.64 24.458 5.826 28 12.305 28c6.478 0 10.663-3.542 10.663-9.023 0-2.473-.866-4.884-2.439-6.788l-3.202-3.931zm-5.031 8.498a2.464 2.464 0 0 1 2.46 2.461 2.457 2.457 0 0 1-1.631 2.307v.734a.82.82 0 1 1-1.64 0v-.728a2.457 2.457 0 0 1-1.65-2.313.82.82 0 1 1 1.64 0 .82.82 0 1 0 .82-.82 2.464 2.464 0 0 1-2.46-2.461c0-1.072.692-1.975 1.65-2.313v-1.209a.82.82 0 1 1 1.64 0v1.215a2.457 2.457 0 0 1 1.632 2.307.82.82 0 1 1-1.641 0 .82.82 0 1 0-.82.82z" fill="#FFAB00"/>
</svg>
