<svg width="24" height="24" viewBox="0 0 24 24" fill="none" xmlns="http://www.w3.org/2000/svg">
    <path d="M18 7.16a.605.605 0 0 0-.19 0 2.585 2.585 0 1 1 .19 0zM16.97 14.44a5.635 5.635 0 0 0 3.94-.72 1.912 1.912 0 0 0 0-3.42 5.67 5.67 0 0 0-3.97-.71M5.97 7.16a.605.605 0 0 1 .19 0 2.585 2.585 0 1 0-.19 0zM7.003 14.44a5.635 5.635 0 0 1-3.94-.72 1.912 1.912 0 0 1 0-3.42 5.67 5.67 0 0 1 3.967-.71M12 14.63a.605.605 0 0 0-.19 0 2.585 2.585 0 1 1 .19 0zM9.09 17.78a1.911 1.911 0 0 0 0 3.42 5.676 5.676 0 0 0 5.82 0 1.91 1.91 0 0 0 0-3.42 5.723 5.723 0 0 0-5.82 0z" stroke="#000" stroke-width="1.5" stroke-linecap="round" stroke-linejoin="round"/>
</svg>
