<svg width="21" height="21" viewBox="0 0 21 21" fill="none" xmlns="http://www.w3.org/2000/svg">
<path d="M14.584 1H5.915C2.894 1 1 3.139 1 6.166V14.334C1 17.361 2.884 19.5 5.915 19.5H14.583C17.614 19.5 19.5 17.361 19.5 14.334V6.166C19.5 3.139 17.614 1 14.584 1Z" stroke="#B9B9B9" stroke-width="1.5" stroke-miterlimit="10" stroke-linecap="round" stroke-linejoin="round"/>
<path d="M5.77201 11.447C5.53446 11.447 5.30226 11.3765 5.10481 11.2444C4.90736 11.1123 4.75356 10.9246 4.66289 10.7051C4.57221 10.4855 4.54874 10.244 4.59545 10.011C4.64216 9.77813 4.75694 9.56432 4.92527 9.3967C5.09359 9.22908 5.30788 9.11518 5.54098 9.06945C5.77409 9.02371 6.01552 9.04819 6.23471 9.13978C6.45389 9.23138 6.64096 9.38596 6.77221 9.58396C6.90346 9.78195 6.973 10.0144 6.97201 10.252C6.97201 10.5703 6.84558 10.8755 6.62054 11.1005C6.3955 11.3256 6.09027 11.452 5.77201 11.452" fill="#E63A2D"/>
<path d="M10.251 11.447C10.0135 11.447 9.78126 11.3765 9.58381 11.2444C9.38637 11.1123 9.23257 10.9246 9.14189 10.7051C9.05121 10.4855 9.02774 10.244 9.07445 10.011C9.12116 9.77813 9.23595 9.56432 9.40427 9.3967C9.57259 9.22908 9.78688 9.11518 10.02 9.06945C10.2531 9.02371 10.4945 9.04819 10.7137 9.13978C10.9329 9.23138 11.12 9.38596 11.2512 9.58396C11.3825 9.78195 11.452 10.0144 11.451 10.252C11.451 10.5703 11.3246 10.8755 11.0995 11.1005C10.8745 11.3256 10.5693 11.452 10.251 11.452" fill="#E63A2D"/>
<path d="M14.73 11.447C14.4925 11.447 14.2603 11.3765 14.0628 11.2444C13.8654 11.1123 13.7116 10.9246 13.6209 10.7051C13.5302 10.4855 13.5067 10.244 13.5535 10.011C13.6002 9.77813 13.715 9.56432 13.8833 9.3967C14.0516 9.22908 14.2659 9.11518 14.499 9.06945C14.7321 9.02371 14.9735 9.04819 15.1927 9.13978C15.4119 9.23138 15.599 9.38596 15.7302 9.58396C15.8615 9.78195 15.931 10.0144 15.93 10.252C15.93 10.5703 15.8036 10.8755 15.5785 11.1005C15.3535 11.3256 15.0483 11.452 14.73 11.452" fill="#E63A2D"/>
</svg>
