<svg width="24" height="24" viewBox="0 0 24 24" fill="none" xmlns="http://www.w3.org/2000/svg">
    <path d="M6 0c-.825 0-1.5.675-1.5 1.5v21c0 .825.675 1.5 1.5 1.5h15c.825 0 1.5-.675 1.5-1.5V6l-6-6H6z" fill="#E2E5E7"/>
    <path d="M18 6h4.5l-6-6v4.5c0 .825.675 1.5 1.5 1.5z" fill="#B0B7BD"/>
    <path d="M22.5 10.5 18 6h4.5v4.5z" fill="#CAD1D8"/>
    <path d="M19.5 19.5c0 .413-.337.75-.75.75H2.25a.752.752 0 0 1-.75-.75V12c0-.412.337-.75.75-.75h16.5c.413 0 .75.338.75.75v7.5z" fill="#F15642"/>
    <path d="M4.769 14.21c0-.198.156-.414.407-.414h1.386c.78 0 1.482.522 1.482 1.523 0 .948-.702 1.476-1.482 1.476H5.56v.792c0 .264-.168.413-.384.413a.404.404 0 0 1-.407-.413V14.21zm.791.341v1.495h1.002c.402 0 .72-.355.72-.727 0-.42-.318-.768-.72-.768H5.56zM9.218 18c-.198 0-.414-.108-.414-.371v-3.407c0-.215.216-.372.414-.372h1.373c2.74 0 2.68 4.15.054 4.15H9.218zm.378-3.418v2.687h.995c1.62 0 1.692-2.687 0-2.687h-.995zm4.648.048v.954h1.529c.216 0 .432.216.432.425 0 .198-.216.36-.432.36h-1.53v1.259c0 .21-.149.371-.359.371-.264 0-.425-.161-.425-.371v-3.406c0-.216.162-.372.425-.372h2.106c.264 0 .42.156.42.372a.414.414 0 0 1-.42.408h-1.746z" fill="#fff"/>
    <path d="M18.75 20.25H4.5V21h14.25c.413 0 .75-.337.75-.75v-.75c0 .413-.337.75-.75.75z" fill="#CAD1D8"/>
</svg>
