<svg width="24" height="24" viewBox="0 0 24 24" fill="none" xmlns="http://www.w3.org/2000/svg">
<g clip-path="url(#clip0_189_930)">
<path d="M12.16 9.87C12.0503 9.85999 11.9398 9.85999 11.83 9.87C10.6663 9.82677 9.56591 9.32852 8.76567 8.48242C7.96542 7.63632 7.5292 6.50994 7.55082 5.34555C7.57243 4.18115 8.05017 3.07175 8.88127 2.25593C9.71237 1.44012 10.8305 0.983063 11.995 0.983063C13.1596 0.983063 14.2777 1.44012 15.1088 2.25593C15.9399 3.07175 16.4177 4.18115 16.4393 5.34555C16.4609 6.50994 16.0247 7.63632 15.2244 8.48242C14.4242 9.32852 13.3238 9.82677 12.16 9.87Z" stroke="#E63A2D" stroke-width="1.5" stroke-linecap="round" stroke-linejoin="round"/>
<path d="M7.15997 13.561C4.73997 15.181 4.73997 17.821 7.15997 19.431C8.67323 20.3342 10.4027 20.811 12.165 20.811C13.9273 20.811 15.6567 20.3342 17.17 19.431C19.59 17.811 19.59 15.171 17.17 13.561C15.6551 12.6626 13.9262 12.1885 12.165 12.1885C10.4037 12.1885 8.67488 12.6626 7.15997 13.561Z" stroke="#B9B9B9" stroke-width="1.5" stroke-linecap="round" stroke-linejoin="round"/>
</g>
<defs>
<clipPath id="clip0_189_930">
<rect width="24" height="24" fill="white"/>
</clipPath>
</defs>
</svg>
