<svg width="24" height="24" viewBox="0 0 24 24" fill="none" xmlns="http://www.w3.org/2000/svg">
<path d="M12 3C13.78 3 15.5201 3.52784 17.0001 4.51677C18.4802 5.50571 19.6337 6.91131 20.3149 8.55585C20.9961 10.2004 21.1743 12.01 20.8271 13.7558C20.4798 15.5016 19.6226 17.1053 18.364 18.364C17.1053 19.6226 15.5016 20.4798 13.7558 20.8271C12.01 21.1743 10.2004 20.9961 8.55585 20.3149C6.91131 19.6337 5.50571 18.4802 4.51677 17.0001C3.52784 15.5201 3 13.78 3 12C3 9.61305 3.94821 7.32387 5.63604 5.63604C7.32387 3.94821 9.61305 3 12 3Z" stroke="#B9B9B9" stroke-width="1.5" stroke-linecap="round"/>
<path d="M14.8 9C14.6188 8.68577 14.3557 8.42671 14.0386 8.25056C13.7215 8.07441 13.3625 7.9878 13 8H11C10.4696 8 9.96086 8.21072 9.58579 8.58579C9.21071 8.96086 9 9.46957 9 10C9 10.5304 9.21071 11.0391 9.58579 11.4142C9.96086 11.7893 10.4696 12 11 12H13C13.5304 12 14.0391 12.2107 14.4142 12.5858C14.7893 12.9609 15 13.4696 15 14C15 14.5304 14.7893 15.0391 14.4142 15.4142C14.0391 15.7893 13.5304 16 13 16H11C10.6375 16.0122 10.2785 15.9256 9.96142 15.7495C9.64435 15.5733 9.38115 15.3142 9.2 15" stroke="#E63A2D" stroke-width="1.5" stroke-linecap="round" stroke-linejoin="round"/>
<path d="M12 6V8M12 16V18" stroke="#E63A2D" stroke-width="1.5" stroke-linecap="round" stroke-linejoin="round"/>
</svg>
