<svg width="24" height="24" viewBox="0 0 24 24" fill="none" xmlns="http://www.w3.org/2000/svg">
<g clip-path="url(#clip0_189_943)">
<path d="M12 2.00003C10.7546 2.00442 9.56081 2.49818 8.67615 3.37481C7.7915 4.25143 7.28688 5.44066 7.27113 6.68599C7.25538 7.93131 7.72978 9.13292 8.59198 10.0316C9.45418 10.9304 10.6351 11.4541 11.88 11.49C11.953 11.48 12.027 11.48 12.1 11.49H12.17C13.42 11.4551 14.6057 10.9282 15.4694 10.024C16.3331 9.11974 16.805 7.91114 16.7826 6.66087C16.7603 5.4106 16.2453 4.21969 15.3498 3.34695C14.4542 2.47421 13.2504 1.99017 12 2.00003Z" fill="#E63A2D"/>
<path d="M17.08 14.15C15.5446 13.2369 13.7913 12.755 12.005 12.755C10.2186 12.755 8.46534 13.2369 6.92996 14.15C6.35738 14.4803 5.87694 14.9492 5.53274 15.5136C5.18853 16.0779 4.99158 16.7197 4.95996 17.38C4.99084 18.0366 5.18658 18.6748 5.52912 19.2358C5.87167 19.7969 6.35 20.2626 6.91996 20.59C8.44041 21.5434 10.2056 22.0334 12 22C13.7943 22.0334 15.5595 21.5434 17.08 20.59C17.6508 20.2586 18.1294 19.7892 18.4718 19.2249C18.8142 18.6606 19.0096 18.0194 19.04 17.36C19.007 16.7039 18.8104 16.0665 18.4681 15.5058C18.1257 14.9451 17.6485 14.479 17.08 14.15Z" fill="#E63A2D"/>
</g>
<defs>
<clipPath id="clip0_189_943">
<rect width="24" height="24" fill="white"/>
</clipPath>
</defs>
</svg>
