<svg width="24" height="24" viewBox="0 0 24 24" fill="none" xmlns="http://www.w3.org/2000/svg">
<g clip-path="url(#clip0_190_955)">
<path d="M22 6.99701V16.997C22 18.3231 21.4732 19.5949 20.5355 20.5325C19.5979 21.4702 18.3261 21.997 17 21.997H7C5.67392 21.997 4.40214 21.4702 3.46446 20.5325C2.52678 19.5949 2 18.3231 2 16.997V6.99701C2 5.67093 2.52678 4.39915 3.46446 3.46147C4.40214 2.52379 5.67392 1.99701 7 1.99701H17C18.3261 1.99701 19.5979 2.52379 20.5355 3.46147C21.4732 4.39915 22 5.67093 22 6.99701Z" fill="#E63A2D"/>
<path d="M16.2461 11.997C16.2448 12.1955 16.1653 12.3855 16.025 12.5259C15.8846 12.6663 15.6946 12.7457 15.4961 12.747H12.7461V15.497C12.7461 15.6959 12.6671 15.8867 12.5264 16.0273C12.3858 16.168 12.195 16.247 11.9961 16.247C11.7972 16.247 11.6064 16.168 11.4658 16.0273C11.3251 15.8867 11.2461 15.6959 11.2461 15.497V12.747H8.49609C8.29718 12.747 8.10641 12.668 7.96576 12.5273C7.82511 12.3867 7.74609 12.1959 7.74609 11.997C7.74609 11.7981 7.82511 11.6073 7.96576 11.4667C8.10641 11.326 8.29718 11.247 8.49609 11.247H11.2461V8.49701C11.2461 8.2981 11.3251 8.10733 11.4658 7.96667C11.6064 7.82602 11.7972 7.74701 11.9961 7.74701C12.195 7.74701 12.3858 7.82602 12.5264 7.96667C12.6671 8.10733 12.7461 8.2981 12.7461 8.49701V11.247H15.4961C15.5946 11.2469 15.6922 11.2662 15.7833 11.3038C15.8743 11.3415 15.957 11.3967 16.0267 11.4664C16.0964 11.5361 16.1516 11.6188 16.1893 11.7098C16.2269 11.8009 16.2462 11.8985 16.2461 11.997Z" fill="white"/>
</g>
<defs>
<clipPath id="clip0_190_955">
<rect width="24" height="24" fill="white"/>
</clipPath>
</defs>
</svg>
