<svg width="16" height="16" viewBox="0 0 16 16" fill="none" xmlns="http://www.w3.org/2000/svg">
<g id="ic_request" clip-path="url(#clip0_101_1586)">
<g id="Group">
<g id="Group_2">
<path id="Vector" d="M12.1267 8.62667L10.6776 7.90211C10.3482 7.73744 10.3017 7.27866 10.5375 6.99585C11.0636 6.36486 11.38 5.55388 11.38 4.66667C11.38 2.64667 9.73335 1 7.71335 1C5.69335 1 4.04669 2.64667 4.04669 4.66667C4.04669 5.97773 4.74002 7.12968 5.78038 7.77619C5.93987 7.8753 6.04669 8.04483 6.04669 8.2326V9.48171C6.04669 9.79996 5.75244 10.037 5.44126 9.97024C4.63562 9.79746 4.67296 9.80667 4.54002 9.80667C4.18669 9.80667 3.85335 9.94667 3.60002 10.2L3.01524 10.7931C2.82234 10.9888 2.82346 11.3034 3.01774 11.4977L6.06002 14.54C6.34669 14.8333 6.74669 15 7.16002 15H11.36C12.0134 15 12.5667 14.5333 12.6734 13.8867L13.2067 10.7467C13.3534 9.88 12.92 9.02667 12.1267 8.62667ZM11.8934 10.5267L11.4307 13.2504C11.3899 13.4908 11.1816 13.6667 10.9378 13.6667H7.16002C7.10002 13.6667 7.04669 13.64 7.00002 13.6L5.7337 12.3337C5.38224 11.9822 5.70325 11.3889 6.18974 11.4907L6.77754 11.6138C7.08817 11.6789 7.38002 11.4418 7.38002 11.1244V4.66667C7.38002 4.48 7.52669 4.33333 7.71335 4.33333C7.90002 4.33333 8.04669 4.48 8.04669 4.66667V8.16667C8.04669 8.44281 8.27055 8.66667 8.54669 8.66667H9.10199C9.17961 8.66667 9.25617 8.68474 9.32559 8.71945L11.5267 9.82C11.7934 9.95333 11.94 10.24 11.8934 10.5267ZM5.38002 4.66667C5.38002 3.38 6.42669 2.33333 7.71335 2.33333C9.00002 2.33333 10.0467 3.38 10.0467 4.66667C10.0467 4.8657 10.0217 5.05881 9.97452 5.2431C9.86365 5.67652 9.38002 5.51982 9.38002 5.07244V4.66667C9.38002 3.74667 8.63335 3 7.71335 3C6.79335 3 6.04669 3.74667 6.04669 4.66667V5.07244C6.04669 5.51982 5.56306 5.67652 5.45218 5.2431C5.40504 5.05881 5.38002 4.8657 5.38002 4.66667Z" fill="white"/>
</g>
</g>
</g>
<defs>
<clipPath id="clip0_101_1586">
<rect width="16" height="16" fill="white"/>
</clipPath>
</defs>
</svg>
