<svg width="28" height="28" viewBox="0 0 28 28" fill="none" xmlns="http://www.w3.org/2000/svg">
    <path d="M13.403 2.223a2.47 2.47 0 0 0-2.24-.346L6.59 3.395a2.505 2.505 0 0 0-1.715 2.39v16.432a2.506 2.506 0 0 0 1.715 2.388l4.572 1.519a2.502 2.502 0 0 0 3.281-2.39V4.267a2.49 2.49 0 0 0-1.041-2.043zm1.916 12.434v9.078c0 .146-.009.293-.026.438h5.425a2.41 2.41 0 0 0 2.406-2.406V6.235a2.41 2.41 0 0 0-2.406-2.406h-5.425c.018.145.026.291.026.437v9.079h3.898l-1.802-1.816.936-.928 2.91 2.936a.66.66 0 0 1 0 .928L18.35 17.4l-.936-.927 1.802-1.816H15.32z" fill="#664DC9"/>
</svg>
