<svg width="343" height="120" viewBox="0 0 343 120" fill="none" xmlns="http://www.w3.org/2000/svg">
    <path d="M115.22 56.265h-9.701v30.249h-7.438V56.265h-9.7v-6.39h26.839v6.39z" fill="#000"/>
    <path d="M130.859 84.838c-2.997 1.534-6.759 2.3-11.369 2.3-3.45 0-6.08-.766-7.947-2.272-1.867-1.505-2.8-3.493-2.8-5.936 0-2.556.962-4.544 2.857-6.021 1.923-1.477 4.44-2.216 7.607-2.244 1.358 0 2.913.142 4.639.426v-1.25c0-3.152-1.782-4.714-5.317-4.714-2.574 0-4.865.426-6.873 1.25l-1.301-5.653c2.489-1.05 5.515-1.562 9.022-1.562 3.79 0 6.646.966 8.569 2.869 1.924 1.931 2.885 4.686 2.885 8.265v14.542h.028zm-10.633-2.869c1.527 0 2.743-.255 3.648-.738v-5.596a17.06 17.06 0 0 0-3.705-.426c-2.856 0-4.271 1.136-4.271 3.409 0 2.215 1.443 3.351 4.328 3.351zM142.823 48.596v28.26c0 2.898.933 4.346 2.8 4.346a6.04 6.04 0 0 0 1.498-.17l.51 5.709c-1.33.284-2.546.426-3.649.426-5.6 0-8.399-3.408-8.399-10.197V49.023l7.24-.427zM171.727 85.35c-2.602 1.192-5.657 1.788-9.107 1.788-4.242 0-7.636-1.25-10.238-3.806-2.574-2.527-3.875-5.936-3.875-10.224 0-4.147 1.188-7.527 3.592-10.083 2.404-2.585 5.515-3.863 9.333-3.863 3.394 0 6.137 1.108 8.202 3.295 2.064 2.187 3.111 5.055 3.111 8.577 0 1.25-.057 2.585-.198 3.977h-16.46c.65 4.033 3.083 6.078 7.296 6.078 2.433 0 4.837-.511 7.241-1.506l1.103 5.766zM161.432 64.9c-1.499 0-2.715.51-3.677 1.505-.961 1.022-1.555 2.414-1.81 4.175h9.899v-.625c0-1.505-.396-2.727-1.16-3.664-.791-.909-1.866-1.392-3.252-1.392zM183.718 86.514h-7.127V61.463c3.563-1.534 7.494-2.3 11.765-2.3 3.818 0 6.759.936 8.852 2.783 2.093 1.846 3.139 4.487 3.139 7.952v16.644h-7.183V70.438c0-3.522-1.612-5.283-4.836-5.283-1.697 0-3.224.312-4.582.937v20.422h-.028zM220.088 86.684c-1.244.313-2.772.483-4.525.483-6.25 0-9.39-3.437-9.39-10.31V65.553h-3.535v-5.766h3.535v-5.822l7.184-.37v6.164h5.769v5.765h-5.769v11.19c0 2.955 1.188 4.46 3.592 4.46.933 0 1.866-.114 2.771-.313l.368 5.823zM229.873 48.596v28.26c0 2.898.934 4.346 2.8 4.346.566 0 1.047-.056 1.499-.17l.509 5.709c-1.329.284-2.545.426-3.648.426-5.6 0-8.4-3.408-8.4-10.197V49.023l7.24-.427zM244.665 59.787v26.727h-7.184V59.787h7.184zM257.166 86.514h-7.127V61.463c3.563-1.534 7.494-2.3 11.765-2.3 3.818 0 6.759.936 8.852 2.783 2.093 1.846 3.139 4.487 3.139 7.952v16.644h-7.183V70.438c0-3.522-1.612-5.283-4.837-5.283-1.696 0-3.224.312-4.581.937v20.422h-.028zM295.515 86.514l-5.995-10.197a75.796 75.796 0 0 1-3.479 2.358v7.839h-7.184v-37.52l7.184-.37v23.064c4.61-3.011 7.325-6.987 8.117-11.93h7.127c-.142 4.29-2.348 8.436-6.618 12.44l8.654 14.287h-7.806v.029zM100.57 94.012c-.736.057-.82.113-.82.852v3.465c0 .738.084.795.82.852v.256h-2.461v-.256c.764-.057.849-.114.849-.852v-1.704h-3.055v1.704c0 .738.085.795.82.852v.256h-2.432v-.256c.707-.057.792-.114.792-.852v-3.465c0-.739-.057-.795-.792-.852v-.256h2.404v.256c-.679.057-.764.113-.764.852v1.363h3.055v-1.363c0-.739-.085-.795-.792-.852v-.256h2.404v.256h-.028zM110.044 99.21a10.27 10.27 0 0 0-.707.141c-.255.057-.481.114-.679.17l-.057-.056v-.625c-.198.142-.367.313-.622.455-.254.142-.452.227-.707.227-.622 0-1.131-.37-1.131-1.307V96.54c0-.483-.085-.512-.283-.568l-.226-.057v-.2c.17 0 .424-.028.679-.056.254-.028.509-.085.678-.085-.028.256-.028.682-.028 1.278v1.164c0 .739.368.966.764.966.311 0 .622-.113.905-.397v-2.017c0-.483-.085-.54-.368-.568l-.311-.057v-.227c.254 0 .566-.028.82-.085a8.34 8.34 0 0 0 .622-.085v2.868c0 .455.085.511.425.54h.226v.255zM119.801 99.437v-.228c.481-.056.594-.085.594-.71v-1.42c0-.653-.255-1.022-.764-1.022-.283 0-.594.17-.933.426 0 .113.028.199.028.369v1.676c0 .54.085.596.566.653v.227h-1.952v-.227c.538-.057.594-.085.594-.682v-1.477c0-.653-.254-.994-.735-.994-.339 0-.651.228-.933.426V98.5c0 .568.084.625.48.682v.227h-1.894v-.227c.565-.057.65-.114.65-.682v-1.76c0-.569-.028-.597-.537-.682v-.228c.367-.056.876-.17 1.301-.34v.71c.198-.114.367-.284.65-.455.226-.142.453-.227.735-.227.425 0 .792.256.99.71.255-.199.509-.34.736-.483.198-.113.424-.227.678-.227.707 0 1.16.483 1.16 1.363v1.648c0 .568.056.596.566.681v.228h-1.98zM129.502 99.522a.729.729 0 0 1-.453-.17.996.996 0 0 1-.226-.37c-.368.227-.764.54-1.018.54a1.082 1.082 0 0 1-1.103-1.08c0-.425.226-.71.707-.851.565-.17 1.188-.398 1.357-.569v-.142c0-.624-.283-.965-.707-.965a.534.534 0 0 0-.367.142c-.114.113-.198.312-.255.596-.057.142-.141.227-.283.227-.17 0-.396-.17-.396-.397 0-.142.113-.227.283-.37a4.042 4.042 0 0 1 1.358-.624c.282 0 .537.056.735.227.339.284.424.625.424 1.108v1.562c0 .397.142.511.311.511a.569.569 0 0 0 .311-.085l.085.227-.763.483zm-.679-2.187c-.17.085-.538.256-.707.34-.34.143-.538.313-.538.654 0 .454.34.653.594.653.198 0 .481-.142.651-.284v-1.363zM137.619 99.437v-.228c.509-.056.565-.113.565-.738v-1.42c0-.597-.254-.966-.792-.966-.339 0-.65.199-.933.426v2.017c0 .596.057.625.566.681v.228h-1.952v-.228c.594-.085.622-.113.622-.71v-1.76c0-.569-.056-.597-.509-.682v-.228c.425-.056.877-.17 1.301-.34v.71c.17-.142.368-.256.594-.426.255-.17.481-.256.736-.256.707 0 1.159.483 1.159 1.363v1.62c0 .596.057.624.566.681v.227h-1.923v.029zM156.652 99.493c-.113 0-.198 0-.311-.028-.707-.028-1.075-.227-1.499-.795-.311-.426-.594-.966-.849-1.364-.169-.255-.311-.369-.763-.369h-.255v1.364c0 .738.085.795.792.852v.255h-2.404v-.255c.707-.057.792-.114.792-.853v-3.436c0-.739-.085-.795-.763-.852v-.256h2.262c.679 0 1.103.085 1.442.313.368.227.594.624.594 1.136 0 .767-.48 1.221-1.131 1.477.142.284.509.852.792 1.25.311.454.509.71.707.908a1.2 1.2 0 0 0 .622.398l-.028.255zm-3.309-2.84c.453 0 .735-.085.962-.255.339-.256.48-.597.48-1.08 0-.937-.622-1.278-1.272-1.278-.255 0-.396.029-.481.085-.057.057-.085.142-.085.37v2.158h.396zM164.627 98.641c-.565.71-1.216.88-1.499.88-1.074 0-1.725-.88-1.725-1.845 0-.568.198-1.108.566-1.506.368-.426.848-.681 1.329-.681.764 0 1.358.653 1.358 1.335 0 .17-.057.255-.198.284-.17.028-1.273.113-2.291.142.028 1.136.679 1.619 1.301 1.619.368 0 .707-.142 1.018-.426l.141.198zM163.1 95.83c-.367 0-.763.341-.877 1.08.481 0 .934 0 1.443-.029.141 0 .198-.056.198-.17-.028-.454-.311-.88-.764-.88zM171.953 96.682c-.17-.512-.481-.88-.905-.88-.312 0-.538.226-.538.567 0 .37.34.568.736.71.678.256 1.131.597 1.131 1.193 0 .824-.736 1.221-1.471 1.221-.452 0-.877-.17-1.018-.284-.057-.113-.141-.738-.141-1.079l.254-.028c.17.596.566 1.107 1.075 1.107a.599.599 0 0 0 .594-.596c0-.37-.227-.568-.679-.767-.509-.227-1.131-.54-1.131-1.221 0-.625.537-1.136 1.357-1.136.368 0 .622.085.792.142.085.198.198.738.198.937l-.254.114zM179.39 95.517c1.132 0 1.952.88 1.952 1.931 0 1.42-1.075 2.074-1.98 2.074-1.273 0-2.008-.966-2.008-1.903a2.068 2.068 0 0 1 2.036-2.102zm-.113.284c-.509 0-.99.511-.99 1.505 0 1.108.481 1.904 1.188 1.904.509 0 .962-.341.962-1.563 0-1.05-.425-1.846-1.16-1.846zM190.788 99.21a10.27 10.27 0 0 0-.707.141c-.255.057-.481.114-.679.17l-.056-.056v-.625c-.198.142-.368.313-.623.455-.254.142-.452.227-.707.227-.622 0-1.131-.37-1.131-1.307V96.54c0-.483-.085-.512-.283-.568l-.226-.057v-.2c.17 0 .424-.028.679-.056.254-.028.509-.085.678-.085-.028.256-.028.682-.028 1.278v1.164c0 .739.368.966.764.966.311 0 .622-.113.905-.397v-2.017c0-.483-.085-.54-.368-.568l-.311-.057v-.227c.255 0 .566-.028.82-.085a8.34 8.34 0 0 0 .622-.085v2.868c0 .455.085.511.425.54h.226v.255zM197.038 96.454c.283-.482.651-.937 1.075-.937.311 0 .537.227.537.455 0 .198-.113.369-.311.482-.113.029-.198.029-.226-.028-.142-.114-.226-.17-.396-.17-.226 0-.481.255-.679.71v1.562c0 .568.028.625.735.681v.228h-2.121v-.228c.538-.056.623-.113.623-.681V96.71c0-.568-.057-.596-.538-.653v-.2c.453-.084.849-.17 1.301-.368v.965zM206.824 98.613c-.396.511-.99.909-1.528.909-1.159 0-1.81-.909-1.81-1.818 0-.653.311-1.25.905-1.704a2.32 2.32 0 0 1 1.358-.483c.368 0 .65.114.792.227.113.086.141.17.141.256 0 .199-.198.398-.311.398-.057 0-.085-.029-.17-.114a1.329 1.329 0 0 0-.905-.37c-.537 0-1.046.455-1.046 1.364 0 1.193.877 1.59 1.329 1.59.368 0 .679-.113 1.075-.482l.17.227zM214.94 98.641c-.565.71-1.216.88-1.498.88-1.075 0-1.726-.88-1.726-1.845 0-.568.198-1.108.566-1.506.368-.426.848-.681 1.329-.681.764 0 1.358.653 1.358 1.335 0 .17-.057.255-.198.284-.17.028-1.273.113-2.291.142.028 1.136.679 1.619 1.301 1.619.368 0 .707-.142 1.018-.426l.141.198zm-1.527-2.812c-.367 0-.763.341-.877 1.08.481 0 .934 0 1.443-.029.141 0 .198-.056.198-.17-.028-.454-.311-.88-.764-.88zM222.266 96.682c-.17-.512-.481-.88-.905-.88-.312 0-.538.226-.538.567 0 .37.34.568.736.71.678.256 1.131.597 1.131 1.193 0 .824-.736 1.221-1.471 1.221-.452 0-.877-.17-1.018-.284-.057-.113-.141-.738-.141-1.079l.254-.028c.17.596.566 1.107 1.075 1.107a.599.599 0 0 0 .594-.596c0-.37-.227-.568-.679-.767-.509-.227-1.131-.54-1.131-1.221 0-.625.537-1.136 1.357-1.136.368 0 .622.085.792.142.085.198.198.738.198.937l-.254.114zM237.651 95.12c-.141-.569-.424-1.193-1.188-1.193-.679 0-.99.482-.99.937 0 .625.425.909 1.132 1.278.763.37 1.527.795 1.527 1.733 0 .937-.792 1.675-2.008 1.675-.368 0-.679-.056-.905-.142a4.08 4.08 0 0 1-.453-.198c-.056-.171-.198-.966-.254-1.392l.254-.085c.142.568.594 1.477 1.499 1.477.651 0 1.018-.398 1.018-1.023 0-.625-.48-.937-1.159-1.278-.622-.313-1.471-.739-1.471-1.704 0-.88.707-1.59 1.867-1.59.424 0 .82.113 1.159.198.029.312.085.682.142 1.25l-.17.056zM245.287 95.517c1.131 0 1.951.88 1.951 1.931 0 1.42-1.074 2.074-1.98 2.074-1.272 0-2.008-.966-2.008-1.903a2.07 2.07 0 0 1 2.037-2.102zm-.113.284c-.509 0-.99.511-.99 1.505 0 1.108.481 1.904 1.188 1.904.509 0 .961-.341.961-1.563 0-1.05-.424-1.846-1.159-1.846zM252.131 99.437v-.228c.565-.056.622-.113.622-.71v-4.09c0-.596-.057-.596-.594-.653v-.227a6.896 6.896 0 0 0 1.358-.312v5.282c0 .597.085.654.65.71v.228h-2.036zM263.415 99.21c-.198.028-.452.085-.707.141-.254.057-.48.114-.678.17l-.057-.056v-.625c-.198.142-.368.313-.622.455-.255.142-.453.227-.707.227-.622 0-1.132-.37-1.132-1.307V96.54c0-.483-.084-.512-.282-.568l-.227-.057v-.2c.17 0 .425-.028.679-.056.255-.028.509-.085.679-.085-.028.256-.028.682-.028 1.278v1.164c0 .739.367.966.763.966.311 0 .622-.113.905-.397v-2.017c0-.483-.085-.54-.367-.568l-.311-.057v-.227c.254 0 .565-.028.82-.085.254-.029.48-.057.622-.085v2.868c0 .455.085.511.424.54h.226v.255zM270.09 99.408a.97.97 0 0 1-.368.114c-.594 0-.905-.341-.905-1.051v-2.5h-.594l-.028-.113.254-.256h.396v-.624l.651-.597.113.028v1.222h.99c.085.085.056.284-.057.369h-.933v2.215c0 .71.311.824.509.824s.396-.085.537-.142l.085.227-.65.284zM275.492 99.437v-.228c.565-.056.622-.113.622-.71v-1.76c0-.54-.028-.597-.566-.682v-.199c.481-.085.934-.17 1.33-.34v2.981c0 .597.056.654.622.71v.228h-2.008zm.48-5.141c0-.284.227-.483.481-.483.255 0 .453.199.453.483a.478.478 0 0 1-.481.483c-.226 0-.453-.227-.453-.483zM284.428 95.517c1.132 0 1.952.88 1.952 1.931 0 1.42-1.075 2.074-1.98 2.074-1.273 0-2.008-.966-2.008-1.903a2.068 2.068 0 0 1 2.036-2.102zm-.113.284c-.509 0-.99.511-.99 1.505 0 1.108.481 1.904 1.188 1.904.509 0 .962-.341.962-1.563 0-1.05-.396-1.846-1.16-1.846zM293.988 99.437v-.228c.509-.056.565-.113.565-.738v-1.42c0-.597-.254-.966-.792-.966-.339 0-.65.199-.933.426v2.017c0 .596.057.625.566.681v.228h-1.952v-.228c.594-.085.623-.113.623-.71v-1.76c0-.569-.057-.597-.509-.682v-.228c.424-.056.876-.17 1.3-.34v.71c.17-.142.368-.256.594-.426.255-.17.481-.256.736-.256.707 0 1.159.483 1.159 1.363v1.62c0 .596.057.624.566.681v.227h-1.923v.029zM303.151 96.682c-.169-.512-.481-.88-.905-.88-.311 0-.537.226-.537.567 0 .37.339.568.735.71.679.256 1.132.597 1.132 1.193 0 .824-.736 1.221-1.471 1.221-.453 0-.877-.17-1.018-.284-.057-.113-.142-.738-.142-1.079l.255-.028c.17.596.566 1.107 1.075 1.107a.598.598 0 0 0 .593-.596c0-.37-.226-.568-.678-.767-.509-.227-1.132-.54-1.132-1.221 0-.625.538-1.136 1.358-1.136.368 0 .622.085.792.142.085.198.198.738.198.937l-.255.114z" fill="#000"/>
    <path d="M39.198 41.325 88.182 13.15l15.696 9.345-48.587 28.317-16.093-9.487z" fill="#EB001B"/>
    <path d="M39.198 60.724V41.325l16.093 9.487.113 18.859-16.206-8.947z" fill="#FF5F00"/>
    <path d="m55.404 69.671 16.149-8.55v37.407l-16.15-9.515V69.671z" fill="#F79E1B"/>
    <path d="M241.073 56.237c-1.329 0-2.347-.37-3.083-1.108-.735-.738-1.103-1.704-1.103-2.925 0-1.222.368-2.187 1.103-2.926.736-.738 1.754-1.108 3.083-1.108 1.273 0 2.291.37 3.026 1.108.735.739 1.103 1.704 1.103 2.925 0 1.222-.368 2.188-1.103 2.926-.735.739-1.753 1.108-3.026 1.108z" fill="#EB001B"/>
</svg>
